<?xml version="1.0" standalone="no"?>
<!DOCTYPE svg PUBLIC "-//W3C//DTD SVG 20010904//EN"
 "http://www.w3.org/TR/2001/REC-SVG-20010904/DTD/svg10.dtd">
<svg version="1.0" xmlns="http://www.w3.org/2000/svg"
 width="1404.000000pt" height="565.000000pt" viewBox="0 0 1404.000000 565.000000"
 preserveAspectRatio="xMidYMid meet">

<g transform="translate(0.000000,565.000000) scale(0.100000,-0.100000)"
fill="#000000" stroke="none">
<path d="M4880 5253 c0 -10 4 -115 10 -233 5 -118 12 -300 15 -405 3 -104 10
-293 16 -420 5 -126 9 -234 9 -239 0 -4 44 -5 98 -2 53 4 299 13 547 22 247 8
451 17 454 19 2 3 -31 5 -75 5 -82 0 -505 14 -773 26 l-154 7 7 181 c7 179 36
1019 36 1044 0 9 -26 12 -95 12 -84 0 -95 -2 -95 -17z"/>
<path d="M4378 5130 c-4 -14 -9 -131 -13 -260 -8 -336 -23 -732 -28 -736 -2
-2 -116 0 -253 6 -632 24 -915 32 -922 25 -4 -3 -7 -45 -7 -93 l0 -86 115 2
c63 2 153 5 200 7 47 3 231 10 410 15 351 11 533 20 539 26 4 3 -6 324 -28
939 -4 99 -10 169 -13 155z"/>
<path d="M3530 3480 c-133 -5 -131 -5 110 -13 135 -4 325 -10 424 -14 l178 -6
-6 -136 c-9 -198 -15 -376 -26 -736 -9 -278 -27 -812 -45 -1295 -3 -80 -9
-298 -15 -485 -6 -187 -12 -361 -14 -386 l-5 -47 37 -6 c20 -3 64 -6 96 -6
l59 0 -7 828 c-3 455 -9 1161 -13 1570 l-6 742 -316 -2 c-174 -1 -377 -5 -451
-8z"/>
<path d="M4926 3483 l-129 -4 7 -262 c3 -144 9 -801 12 -1460 4 -658 9 -1196
11 -1194 2 2 8 125 13 273 5 148 12 341 15 429 11 300 52 1507 63 1860 l7 210
160 1 c88 0 295 -5 460 -12 165 -7 360 -13 433 -13 l132 -1 0 29 c0 15 3 56 6
90 l7 61 -534 -2 c-294 -1 -592 -4 -663 -5z"/>
<path d="M8170 2993 c-87 -24 -147 -61 -210 -130 -99 -108 -147 -263 -135
-435 20 -294 194 -468 469 -468 79 0 145 19 220 65 33 20 67 34 75 33 9 -2 20
-20 25 -41 5 -20 16 -37 23 -37 11 0 13 33 11 173 -3 141 -6 172 -17 172 -10
0 -18 -22 -27 -70 -6 -38 -17 -83 -23 -99 -20 -50 -67 -101 -123 -132 -47 -26
-63 -29 -138 -29 -75 0 -91 3 -131 27 -91 54 -148 154 -175 310 -40 231 17
485 132 587 128 113 363 55 430 -106 8 -19 21 -62 27 -96 9 -42 18 -62 27 -62
12 0 15 29 18 168 2 138 0 167 -12 167 -8 0 -16 -14 -20 -34 -11 -55 -26 -60
-82 -24 -84 53 -129 69 -217 74 -59 3 -100 -1 -147 -13z"/>
<path d="M10060 2997 c-173 -40 -312 -188 -351 -375 -17 -85 -7 -293 19 -364
65 -179 208 -284 403 -295 102 -7 166 9 253 62 32 19 64 35 72 35 16 0 34 -31
34 -59 0 -12 7 -21 15 -21 13 0 15 26 15 175 0 146 -2 175 -15 175 -9 0 -16
-14 -20 -37 -21 -129 -46 -185 -107 -237 -55 -47 -132 -70 -213 -64 -72 6
-113 25 -163 78 -84 86 -124 219 -124 410 0 238 61 397 179 467 42 25 57 28
128 27 51 -1 94 -7 118 -18 88 -39 158 -135 173 -236 7 -48 21 -73 35 -64 5 3
9 80 9 170 0 127 -3 165 -12 162 -7 -3 -16 -21 -21 -41 -11 -46 -27 -51 -72
-20 -105 72 -236 97 -355 70z"/>
<path d="M5095 2981 c-12 -12 -2 -19 36 -24 78 -10 74 15 74 -472 0 -485 3
-462 -71 -474 -20 -3 -36 -10 -35 -16 0 -6 81 -11 211 -13 174 -2 210 0 210
12 0 9 -16 15 -51 18 -34 4 -58 12 -72 27 -21 20 -22 32 -25 221 l-3 200 66 0
c102 0 142 -30 160 -120 12 -61 16 -70 32 -70 13 0 15 9 9 53 -3 28 -6 121 -6
205 0 118 -3 152 -13 152 -8 0 -18 -24 -25 -60 -9 -40 -23 -72 -41 -93 -27
-29 -34 -32 -106 -35 l-76 -4 3 216 c3 181 6 218 19 231 21 22 146 31 223 16
96 -18 135 -67 160 -201 8 -41 17 -66 27 -68 12 -2 14 23 16 150 l1 153 -359
0 c-198 1 -362 -1 -364 -4z"/>
<path d="M5920 2974 c0 -6 18 -14 39 -18 73 -11 71 2 71 -474 l0 -423 -25 -24
c-15 -16 -36 -25 -55 -25 -20 0 -30 -5 -30 -15 0 -13 49 -15 381 -15 343 0
381 2 375 16 -3 9 -6 76 -6 150 0 109 -3 134 -14 134 -10 0 -19 -20 -26 -57
-26 -123 -69 -181 -152 -203 -53 -15 -243 -9 -259 7 -20 20 -28 98 -28 276
l-1 167 65 0 c103 0 135 -26 158 -127 9 -37 19 -58 28 -58 8 0 14 6 13 13 -1
6 -2 98 -2 202 -2 157 -4 190 -16 190 -10 0 -19 -20 -27 -57 -9 -39 -24 -69
-45 -93 -31 -33 -35 -35 -101 -35 l-68 0 0 190 c0 105 3 202 8 217 9 34 53 48
149 48 106 0 162 -16 198 -56 16 -19 30 -38 31 -42 0 -4 8 -38 18 -76 27 -111
41 -97 41 41 0 65 3 127 6 138 5 20 0 20 -360 20 -273 1 -366 -2 -366 -11z"/>
<path d="M6800 2974 c0 -6 17 -14 38 -18 21 -3 47 -15 58 -27 18 -20 19 -41
19 -428 0 -313 -3 -413 -13 -437 -14 -32 -47 -54 -82 -54 -11 0 -20 -7 -20
-15 0 -13 22 -15 140 -15 112 0 140 3 140 14 0 8 -16 16 -42 19 -29 4 -50 14
-65 32 -23 26 -23 26 -23 412 0 213 2 384 5 381 5 -5 131 -187 488 -705 88
-128 117 -163 134 -163 l22 0 3 469 c3 443 4 470 22 490 10 11 34 23 52 27 19
3 34 11 34 18 0 8 -39 11 -132 11 -138 0 -174 -11 -97 -30 27 -7 50 -21 63
-38 20 -27 21 -42 24 -343 2 -173 -1 -314 -5 -314 -4 0 -122 163 -261 363
l-253 362 -125 0 c-85 0 -124 -4 -124 -11z"/>
<path d="M8800 2974 c0 -6 18 -14 39 -18 73 -11 71 2 71 -474 l0 -423 -25 -24
c-15 -16 -36 -25 -55 -25 -20 0 -30 -5 -30 -15 0 -13 48 -15 375 -15 l375 0 0
150 c0 123 -3 150 -14 150 -10 0 -20 -26 -32 -77 -27 -113 -69 -165 -150 -183
-52 -12 -206 -13 -238 0 -37 14 -46 63 -46 268 l0 182 70 0 c62 0 73 -3 101
-28 22 -19 36 -46 48 -92 10 -36 23 -65 30 -65 6 0 11 3 11 8 0 4 0 95 0 202
0 166 -2 195 -15 195 -8 0 -17 -12 -21 -27 -12 -59 -36 -111 -60 -134 -20 -19
-38 -24 -94 -27 l-70 -4 0 183 c0 224 7 254 58 269 47 13 144 13 213 0 86 -17
110 -49 146 -199 5 -19 14 -36 21 -39 9 -3 12 28 12 127 0 72 1 134 3 137 1 4
-161 7 -360 8 -272 2 -363 -1 -363 -10z"/>
<path d="M10670 2974 c0 -6 16 -14 36 -17 20 -3 45 -14 55 -23 18 -16 19 -39
19 -449 0 -335 -3 -435 -13 -449 -7 -9 -32 -20 -55 -23 -26 -3 -42 -11 -42
-19 0 -11 37 -14 195 -14 167 0 195 2 195 15 0 10 -10 15 -30 15 -19 0 -40 9
-55 25 -25 24 -25 25 -25 230 l0 205 215 0 215 0 0 -208 c0 -154 -3 -213 -13
-226 -7 -9 -32 -20 -55 -23 -26 -3 -42 -11 -42 -19 0 -11 37 -14 195 -14 167
0 195 2 195 15 0 10 -10 15 -29 15 -15 0 -40 9 -55 21 l-26 20 0 428 c0 479
-2 466 71 477 21 4 39 12 39 18 0 8 -58 11 -195 11 -137 0 -195 -3 -195 -11 0
-6 16 -14 36 -17 73 -12 74 -15 74 -249 l0 -208 -215 0 -215 0 0 203 c0 231 3
242 71 253 21 4 39 12 39 18 0 8 -58 11 -195 11 -137 0 -195 -3 -195 -11z"/>
<path d="M7423 1600 c-17 -33 -29 -60 -26 -60 2 0 24 19 48 41 47 43 59 79 27
79 -12 0 -28 -20 -49 -60z"/>
<path d="M5900 1631 c-35 -5 -40 -8 -22 -13 20 -6 22 -12 22 -71 l0 -64 -37
10 c-105 27 -179 -84 -143 -215 6 -20 22 -46 37 -58 32 -25 99 -27 125 -3 16
14 18 15 18 0 0 -12 11 -16 51 -15 51 0 51 0 30 19 -20 19 -21 30 -21 219 0
110 -3 199 -7 198 -5 0 -28 -4 -53 -7z m-11 -165 c8 -9 11 -49 9 -116 -3 -98
-4 -104 -29 -122 -30 -23 -60 -14 -80 25 -27 50 -11 196 25 219 18 13 63 9 75
-6z"/>
<path d="M10146 1633 c-33 -4 -36 -6 -21 -17 20 -15 29 -139 19 -293 -5 -78
-10 -103 -20 -103 -8 0 -14 -5 -14 -10 0 -7 25 -10 65 -8 36 1 65 6 65 10 0 5
-6 8 -14 8 -23 0 -26 24 -26 226 0 107 -3 193 -7 192 -5 -1 -25 -3 -47 -5z"/>
<path d="M10610 1630 c-25 -4 -38 -8 -29 -8 22 -3 29 -23 29 -89 0 -49 -2 -54
-17 -47 -30 14 -89 9 -117 -10 -74 -48 -76 -210 -4 -260 30 -21 96 -20 120 1
17 15 18 15 18 0 0 -13 10 -17 45 -17 44 0 60 12 30 24 -13 4 -15 37 -15 211
0 113 -3 204 -7 203 -5 0 -28 -4 -53 -8z m-12 -162 c15 -15 16 -191 2 -218
-30 -55 -88 -41 -110 26 -16 46 -7 146 14 179 18 28 72 35 94 13z"/>
<path d="M7154 1616 c-12 -31 0 -51 31 -51 27 0 30 3 30 30 0 25 -4 30 -28 33
-17 2 -29 -2 -33 -12z"/>
<path d="M9044 1616 c-12 -31 0 -51 30 -51 36 0 56 26 37 49 -17 20 -60 21
-67 2z"/>
<path d="M11335 1605 c-5 -2 -22 -6 -37 -9 -15 -4 -43 -20 -62 -37 -99 -87
-83 -290 27 -342 49 -24 134 -22 175 3 l33 20 9 -22 c6 -17 9 -2 8 52 l0 75
-14 -46 c-19 -61 -43 -81 -103 -87 -45 -4 -53 -2 -80 25 -67 68 -70 245 -5
323 22 26 33 30 74 30 41 0 53 -5 79 -31 17 -17 31 -38 31 -47 0 -9 5 -24 10
-32 7 -10 9 6 9 55 -1 39 -3 62 -6 53 -5 -22 -15 -22 -51 -4 -30 15 -82 27
-97 21z"/>
<path d="M5139 1584 c20 -14 21 -23 21 -186 0 -161 -1 -170 -20 -175 -43 -11
-16 -21 61 -22 52 -1 78 2 74 9 -3 5 -14 10 -25 10 -24 0 -30 19 -30 101 l0
69 33 0 c37 0 57 -15 57 -41 0 -10 4 -20 8 -23 5 -3 9 31 9 74 0 44 -3 77 -8
74 -5 -3 -9 -13 -9 -23 0 -26 -34 -53 -62 -49 -21 3 -23 8 -26 79 -4 97 9 114
76 105 56 -7 70 -19 78 -62 11 -57 24 -49 24 15 l0 61 -141 -1 c-128 0 -139
-2 -120 -15z"/>
<path d="M8098 1584 c21 -15 22 -22 22 -186 0 -161 -1 -170 -20 -175 -38 -10
-20 -23 30 -22 54 2 63 9 28 24 -22 10 -23 15 -26 158 -1 81 1 147 5 147 5 0
59 -75 121 -165 62 -91 118 -165 123 -165 5 0 9 77 9 184 0 179 1 184 23 199
21 14 19 15 -32 15 l-54 0 24 -19 c23 -17 24 -24 27 -138 2 -67 0 -121 -5
-121 -4 0 -51 62 -104 138 l-96 137 -48 2 c-46 2 -48 2 -27 -13z"/>
<path d="M12223 1573 c-19 -4 -23 -11 -23 -43 0 -35 -3 -39 -27 -43 l-28 -4
28 -2 27 -1 0 -118 c0 -140 9 -162 69 -162 39 0 71 23 71 51 0 8 -7 4 -16 -9
-10 -15 -24 -22 -37 -20 -21 3 -22 9 -25 130 l-3 127 43 4 43 4 -42 1 -43 2 0
45 c0 25 -3 44 -7 44 -5 -1 -18 -4 -30 -6z"/>
<path d="M5500 1482 c-45 -22 -70 -72 -70 -140 0 -95 41 -142 123 -142 40 0
53 5 78 29 16 16 29 35 29 43 0 8 -8 4 -18 -9 -55 -71 -145 -31 -146 65 l-1
47 83 3 c74 3 82 5 82 23 0 36 -28 76 -61 88 -43 15 -58 14 -99 -7z m84 -14
c9 -12 16 -35 16 -50 0 -27 -2 -28 -55 -28 -58 0 -61 3 -45 47 20 53 59 67 84
31z"/>
<path d="M6110 1482 c-44 -21 -70 -72 -70 -135 0 -98 41 -147 123 -147 40 0
53 5 78 29 16 16 29 35 29 43 0 8 -8 4 -18 -9 -55 -71 -145 -31 -146 65 l-1
47 83 3 c74 3 82 5 82 23 0 36 -28 76 -61 88 -43 15 -58 14 -99 -7z m84 -14
c9 -12 16 -35 16 -50 0 -27 -2 -28 -55 -28 -55 0 -55 0 -49 28 8 31 41 72 60
72 7 0 20 -10 28 -22z"/>
<path d="M6441 1474 c-30 -25 -31 -25 -31 -5 0 19 -6 21 -52 21 -50 0 -52 -1
-30 -16 21 -14 22 -23 22 -128 0 -106 -2 -115 -22 -128 -20 -13 -16 -15 55
-15 42 0 77 4 77 9 0 4 -9 8 -19 8 -26 0 -31 19 -31 111 0 83 15 131 45 143
29 11 36 7 23 -14 -11 -16 -10 -23 5 -37 13 -14 21 -15 35 -7 23 15 27 48 7
68 -23 23 -49 20 -84 -10z"/>
<path d="M6688 1486 c32 -15 33 -18 30 -63 -3 -48 -3 -48 -55 -69 -68 -26 -93
-50 -93 -86 0 -61 81 -91 128 -48 l21 20 11 -20 c7 -14 21 -20 45 -20 38 0 55
15 25 23 -18 5 -20 14 -20 115 0 131 -10 150 -80 158 l-45 5 33 -15z m30 -183
c-3 -49 -6 -59 -27 -70 -39 -19 -63 0 -59 45 2 28 10 41 37 59 19 13 38 23 43
23 5 0 8 -26 6 -57z"/>
<path d="M6933 1486 c-50 -23 -73 -69 -73 -148 0 -62 2 -69 34 -102 29 -32 39
-36 83 -36 41 0 54 5 76 28 34 35 36 60 2 27 -31 -32 -84 -34 -111 -4 -26 29
-32 144 -10 187 23 44 56 61 84 43 11 -7 12 -12 1 -29 -10 -17 -10 -23 1 -37
20 -24 54 -15 58 16 6 52 -79 85 -145 55z"/>
<path d="M7383 1493 c-28 -5 -72 -49 -79 -80 -4 -13 -4 -53 -2 -90 4 -59 7
-69 36 -94 27 -25 41 -29 88 -29 50 0 59 3 90 34 35 35 39 54 34 146 -5 86
-72 132 -167 113z m76 -22 c25 -25 34 -75 29 -156 -4 -70 -25 -105 -63 -105
-38 0 -59 35 -63 105 -5 82 3 126 29 153 25 27 43 28 68 3z"/>
<path d="M7745 1488 c-11 -6 -26 -18 -32 -26 -11 -14 -13 -13 -13 6 0 20 -5
22 -50 22 l-50 0 20 -20 c17 -17 20 -33 20 -119 0 -108 -5 -131 -26 -131 -8 0
-14 -4 -14 -10 0 -5 30 -8 66 -8 54 1 64 4 50 13 -13 10 -16 32 -16 118 0 102
1 106 26 126 33 26 60 27 74 2 5 -11 10 -67 10 -126 0 -85 -3 -107 -15 -111
-31 -12 -13 -20 53 -21 64 -2 66 -2 45 13 -21 15 -23 24 -23 126 0 102 -1 110
-25 133 -26 27 -66 32 -100 13z"/>
<path d="M8567 1493 c29 -6 53 -40 53 -75 0 -31 -39 -62 -92 -73 -33 -8 -68
-49 -68 -81 0 -58 81 -84 134 -43 20 16 26 17 26 6 0 -28 69 -38 89 -13 10 12
9 13 -7 9 -19 -4 -20 2 -23 112 -4 114 -5 118 -32 141 -20 17 -39 24 -65 23
-23 -1 -29 -3 -15 -6z m53 -180 c0 -55 -21 -83 -61 -83 -22 0 -30 6 -35 24 -9
36 3 62 39 85 48 31 57 27 57 -26z"/>
<path d="M8820 1483 c-45 -23 -70 -73 -70 -141 0 -94 41 -142 121 -142 35 0
52 6 73 25 14 13 26 30 26 36 0 7 -10 3 -23 -9 -43 -40 -107 -25 -126 29 -37
108 20 236 89 199 16 -9 19 -14 10 -20 -6 -4 -10 -18 -8 -31 5 -36 52 -34 56
2 6 55 -82 86 -148 52z"/>
<path d="M9263 1485 c-46 -20 -73 -69 -73 -133 0 -105 39 -152 126 -152 42 0
59 5 83 26 75 63 60 225 -24 260 -43 17 -71 17 -112 -1z m72 -1 c29 -12 45
-60 45 -139 0 -96 -18 -135 -60 -135 -39 0 -60 32 -67 103 -7 69 2 118 28 151
22 27 28 30 54 20z"/>
<path d="M9650 1493 c-8 -3 -25 -15 -37 -26 l-23 -20 0 21 c0 20 -5 22 -52 22
-50 0 -52 -1 -30 -16 21 -14 22 -23 22 -128 0 -106 -1 -115 -22 -129 -22 -15
-20 -16 45 -15 64 1 84 9 52 22 -12 4 -15 26 -15 106 0 94 2 103 25 125 13 14
32 25 43 25 36 0 42 -20 42 -134 0 -88 -3 -113 -17 -128 -16 -17 -14 -18 51
-16 61 3 65 4 47 17 -19 12 -21 23 -21 126 0 111 -1 114 -26 134 -26 20 -54
25 -84 14z"/>
<path d="M9946 1487 c33 -16 44 -34 44 -71 0 -29 -24 -50 -75 -66 -54 -17 -85
-47 -85 -82 0 -62 79 -90 134 -47 20 16 26 17 26 6 0 -28 69 -38 89 -13 10 12
9 13 -7 9 -18 -4 -20 3 -24 112 -5 135 -15 153 -89 161 l-44 5 31 -14z m44
-176 c0 -41 -4 -53 -25 -69 -31 -24 -63 -18 -71 13 -9 35 3 61 39 84 49 32 57
28 57 -28z"/>
<path d="M10823 1485 c-48 -20 -73 -68 -73 -138 0 -100 39 -147 123 -147 41 0
53 5 79 30 17 17 28 34 24 37 -3 4 -12 -1 -19 -10 -20 -27 -59 -36 -93 -22
-36 15 -57 58 -52 106 l3 34 83 3 c89 3 91 4 71 62 -8 22 -22 37 -45 46 -41
17 -60 17 -101 -1z m76 -9 c7 -8 15 -30 18 -50 l6 -36 -57 0 c-59 0 -62 3 -46
47 18 48 56 67 79 39z"/>
<path d="M11634 1490 c-89 -36 -110 -200 -33 -264 43 -36 119 -37 154 -1 33
32 32 55 0 25 -60 -56 -135 -11 -135 81 l0 49 85 0 85 0 -6 28 c-18 75 -81
110 -150 82z m63 -8 c13 -8 33 -55 33 -78 0 -10 -14 -14 -56 -14 l-56 0 6 33
c3 17 16 40 27 50 24 19 29 20 46 9z"/>
<path d="M11956 1475 c-34 -23 -36 -23 -36 -5 0 17 -7 20 -52 19 -46 0 -50 -2
-30 -11 21 -11 22 -16 22 -135 0 -103 -2 -123 -15 -123 -8 0 -15 -4 -15 -9 0
-5 30 -9 67 -10 l67 -1 -23 21 c-22 21 -23 28 -19 117 4 88 6 96 32 118 32 28
49 30 70 8 23 -22 23 -232 1 -240 -31 -12 -13 -21 45 -22 57 0 77 9 46 21 -11
4 -15 33 -18 122 -3 109 -5 118 -27 136 -32 26 -71 24 -115 -6z"/>
<path d="M12491 1474 c-30 -25 -31 -25 -31 -5 0 19 -6 21 -52 21 -50 0 -52 -1
-30 -16 21 -14 22 -23 22 -128 0 -107 -1 -114 -22 -128 -21 -14 -18 -15 55
-16 42 0 77 3 77 8 0 5 -10 10 -22 12 -22 3 -23 8 -26 98 -2 80 1 100 18 128
12 19 28 32 40 32 18 0 19 -3 8 -20 -10 -16 -10 -23 4 -36 12 -13 20 -14 37
-5 26 14 27 42 3 64 -26 23 -45 21 -81 -9z"/>
<path d="M12683 1486 c-42 -19 -62 -53 -70 -115 -8 -67 17 -135 57 -156 39
-20 120 -19 149 1 69 49 67 213 -3 259 -35 23 -95 28 -133 11z m101 -29 c28
-38 30 -179 3 -220 -25 -38 -71 -37 -90 1 -35 69 -27 201 13 234 30 24 48 20
74 -15z"/>
<path d="M12980 1493 c-31 -12 -50 -37 -50 -68 0 -33 7 -41 104 -122 45 -37
30 -93 -25 -93 -31 0 -44 13 -63 66 l-15 39 0 -60 c0 -37 3 -55 8 -46 6 10 13
11 29 2 60 -32 152 3 152 59 0 46 -9 58 -76 106 -72 51 -84 85 -39 106 31 14
69 -9 89 -55 l14 -32 1 55 c0 35 -2 50 -8 41 -7 -11 -15 -11 -41 -2 -35 12
-56 13 -80 4z"/>
<path d="M6602 1470 c-23 -22 -26 -29 -16 -54 8 -21 53 -21 61 0 3 9 1 26 -6
37 -10 16 -10 21 1 28 10 7 10 9 -3 9 -8 0 -25 -9 -37 -20z"/>
<path d="M7138 1474 c21 -14 22 -23 22 -128 0 -105 -2 -115 -21 -128 -20 -13
-15 -14 52 -15 69 -1 73 0 52 14 -22 15 -23 22 -23 144 l0 129 -52 0 c-50 0
-52 -1 -30 -16z"/>
<path d="M8491 1466 c-19 -20 -21 -28 -11 -46 16 -29 54 -23 58 9 2 13 -2 28
-10 32 -11 7 -10 11 2 19 13 8 13 10 -1 10 -8 0 -26 -11 -38 -24z"/>
<path d="M9028 1474 c21 -14 22 -23 22 -128 0 -107 -1 -115 -22 -129 -22 -14
-18 -15 51 -14 68 1 73 2 53 15 -21 14 -22 22 -22 143 l0 129 -52 0 c-50 0
-52 -1 -30 -16z"/>
<path d="M9864 1467 c-23 -20 -25 -26 -15 -46 16 -29 55 -25 59 7 2 13 -1 29
-8 37 -8 10 -8 14 2 18 9 4 9 6 1 6 -7 1 -24 -9 -39 -22z"/>
<path d="M9032 978 c-15 -20 -54 -99 -50 -104 9 -8 96 88 91 102 -6 17 -27 18
-41 2z"/>
<path d="M5655 961 c-29 -4 -35 -8 -22 -13 14 -6 17 -20 17 -73 0 -62 -1 -65
-19 -55 -27 14 -58 13 -95 -5 -48 -23 -66 -62 -66 -140 0 -71 17 -117 49 -135
30 -15 92 -12 113 7 17 15 18 15 18 0 0 -14 9 -16 50 -14 27 1 50 4 50 6 0 2
-8 10 -17 17 -16 11 -18 36 -21 213 -2 111 -6 200 -10 200 -4 -1 -25 -5 -47
-8z m-5 -272 c0 -96 -2 -111 -20 -129 -25 -25 -45 -25 -70 0 -27 27 -33 58
-28 141 3 63 7 74 31 95 23 20 31 22 57 13 l30 -11 0 -109z"/>
<path d="M9205 960 c-22 -4 -33 -8 -24 -9 9 0 20 -8 23 -17 3 -9 6 -96 6 -194
0 -168 -1 -178 -21 -191 -18 -13 -13 -14 51 -14 64 0 69 1 51 14 -20 13 -21
22 -21 217 0 157 -3 204 -12 203 -7 -1 -31 -5 -53 -9z"/>
<path d="M10676 963 c-37 -4 -38 -5 -17 -19 17 -13 21 -25 21 -76 0 -53 -2
-59 -17 -53 -93 41 -173 -23 -173 -136 0 -67 10 -99 41 -128 27 -25 100 -29
123 -6 18 19 26 19 26 0 0 -10 11 -14 45 -12 45 2 57 10 30 21 -13 4 -15 37
-15 211 0 158 -3 205 -12 203 -7 -1 -30 -3 -52 -5z m-8 -171 c8 -10 12 -49 12
-109 0 -86 -2 -96 -25 -118 -27 -28 -42 -30 -67 -11 -39 29 -51 144 -23 211
21 52 72 65 103 27z"/>
<path d="M12490 961 c-35 -5 -40 -8 -22 -13 20 -6 22 -12 22 -71 l0 -64 -37
10 c-105 27 -179 -84 -143 -215 6 -20 22 -46 37 -58 32 -25 99 -27 125 -3 16
15 18 15 18 0 0 -13 10 -16 50 -14 27 1 50 5 50 10 0 4 -6 7 -14 7 -23 0 -26
24 -26 226 0 107 -3 193 -7 192 -5 0 -28 -4 -53 -7z m-11 -165 c8 -9 11 -49 9
-116 -3 -98 -4 -104 -29 -122 -30 -23 -60 -14 -80 25 -27 50 -11 196 25 219
18 13 63 9 75 -6z"/>
<path d="M6901 946 c-7 -8 -10 -24 -6 -36 8 -25 62 -28 72 -4 14 38 -41 71
-66 40z"/>
<path d="M9370 945 c-20 -24 0 -50 36 -50 26 0 29 4 29 30 0 25 -4 31 -26 33
-15 2 -31 -4 -39 -13z"/>
<path d="M5138 913 c21 -15 22 -21 22 -183 0 -160 -1 -168 -21 -182 -19 -12
-5 -14 125 -13 l146 0 0 58 c0 31 -2 57 -5 57 -2 0 -9 -18 -15 -40 -6 -22 -20
-45 -31 -51 -29 -15 -120 -13 -130 3 -5 7 -9 46 -9 86 0 57 3 74 16 79 24 9
63 -14 70 -42 12 -48 19 -25 16 51 l-4 76 -16 -34 c-13 -26 -24 -34 -49 -36
l-33 -3 0 73 c0 40 4 79 9 87 6 10 27 15 62 15 42 0 55 -4 70 -23 11 -13 19
-31 19 -42 0 -10 5 -21 10 -24 6 -4 10 15 10 49 l0 56 -142 -1 c-133 0 -141
-1 -120 -16z"/>
<path d="M8097 905 c-117 -80 -109 -297 14 -360 38 -20 120 -19 165 2 35 17
36 17 50 -2 12 -17 14 -11 14 53 0 41 -4 72 -10 72 -5 0 -10 -14 -10 -31 0
-22 -10 -41 -34 -65 -29 -29 -41 -34 -79 -34 -39 0 -49 5 -75 34 -55 63 -65
185 -22 283 21 48 44 63 99 63 51 0 98 -37 107 -86 11 -57 24 -38 24 34 -1 61
-2 65 -15 47 -15 -18 -16 -18 -44 -2 -46 27 -138 23 -184 -8z"/>
<path d="M11248 918 c22 -11 22 -14 22 -190 0 -148 -2 -178 -14 -178 -8 0 -17
-3 -19 -7 -3 -5 29 -8 70 -8 66 0 72 1 54 14 -18 12 -21 24 -21 98 l0 84 83
-3 82 -3 3 -80 c3 -70 1 -81 -17 -95 -19 -14 -16 -15 48 -15 67 0 69 1 50 18
-17 16 -19 33 -19 181 0 158 1 164 23 179 21 15 18 16 -53 16 -71 0 -74 -1
-52 -16 20 -14 22 -24 22 -94 l0 -79 -85 0 -85 0 0 85 c0 67 3 85 14 85 8 0
18 5 21 10 4 6 -22 10 -72 9 -64 0 -74 -2 -55 -11z"/>
<path d="M6723 900 c-18 -7 -23 -17 -23 -44 0 -30 -4 -35 -27 -39 l-28 -4 26
-2 27 -1 3 -119 c5 -139 15 -161 80 -161 39 0 69 26 69 60 -1 8 -7 3 -16 -12
-15 -29 -42 -36 -62 -16 -8 8 -12 51 -12 129 l0 118 43 4 42 4 -42 1 -43 2 0
45 c0 47 -2 49 -37 35z"/>
<path d="M8728 903 c-13 -3 -18 -15 -18 -43 0 -35 -3 -39 -27 -43 l-28 -4 28
-2 27 -1 0 -118 c0 -140 9 -162 69 -162 39 0 71 23 71 51 0 8 -7 4 -16 -9 -10
-15 -24 -22 -37 -20 -21 3 -22 9 -25 130 l-3 127 38 4 38 4 -37 1 -38 2 0 45
c0 45 -3 48 -42 38z"/>
<path d="M6205 820 c-70 -29 -105 -133 -71 -214 33 -79 130 -103 187 -47 38
38 38 63 0 27 -38 -36 -85 -33 -115 7 -16 22 -21 42 -20 90 1 100 50 161 102
128 11 -7 11 -12 1 -28 -7 -11 -9 -28 -6 -37 8 -21 43 -21 55 0 30 54 -61 104
-133 74z"/>
<path d="M6455 821 c-36 -15 -61 -50 -48 -69 16 -27 57 -22 61 7 2 13 -2 28
-10 32 -11 7 -10 11 2 19 41 27 91 -6 88 -60 -2 -35 -13 -47 -66 -66 -62 -23
-92 -51 -92 -86 0 -62 73 -88 131 -47 23 16 29 17 29 6 0 -29 69 -38 90 -12
11 13 10 14 -5 9 -28 -11 -35 14 -35 128 0 103 -1 107 -26 127 -28 22 -82 27
-119 12z m94 -178 c2 -55 -19 -83 -60 -83 -22 0 -30 6 -35 24 -9 39 -1 59 35
83 49 33 58 30 60 -24z"/>
<path d="M6905 819 c-27 -3 -42 -7 -32 -7 26 -3 37 -43 37 -135 0 -95 -7 -127
-26 -127 -8 0 -14 -3 -14 -7 0 -5 29 -8 65 -8 36 0 65 3 65 8 0 4 -7 7 -15 7
-20 0 -25 26 -28 160 l-2 115 -50 -6z"/>
<path d="M7383 815 c-42 -18 -62 -51 -70 -114 -8 -67 17 -135 57 -156 35 -18
106 -19 140 -2 54 27 77 136 46 212 -27 64 -103 91 -173 60z m101 -28 c17 -24
21 -43 21 -111 0 -99 -18 -136 -65 -136 -47 0 -63 42 -58 152 3 81 5 92 27
109 31 25 48 21 75 -14z"/>
<path d="M7675 820 c-33 -13 -47 -36 -43 -72 2 -27 15 -42 66 -82 53 -43 62
-55 62 -82 0 -33 -13 -44 -55 -44 -27 0 -40 15 -59 66 l-15 39 0 -60 c0 -37 3
-55 8 -46 6 10 13 11 29 2 60 -32 152 3 152 59 0 44 -8 57 -64 97 -28 20 -57
43 -63 52 -20 24 -15 50 12 63 31 14 69 -9 89 -55 l14 -32 1 55 c0 37 -2 50
-8 41 -8 -12 -14 -13 -36 -3 -30 14 -61 14 -90 2z"/>
<path d="M8450 813 c-28 -15 -35 -24 -35 -48 0 -23 5 -31 21 -33 11 -2 27 4
34 12 10 13 10 20 -3 40 -16 23 -15 24 9 30 54 14 80 -15 72 -80 -3 -24 -11
-31 -63 -51 -32 -13 -66 -29 -74 -37 -19 -20 -16 -73 5 -97 22 -25 75 -25 105
1 l24 19 -37 -6 c-30 -4 -38 -2 -48 17 -16 30 0 64 42 90 18 11 37 20 41 20 5
0 7 -29 5 -64 -1 -42 2 -69 11 -80 14 -16 47 -21 75 -10 23 9 20 23 -3 17 -18
-5 -19 3 -23 116 -3 138 -10 151 -79 158 -30 3 -55 -2 -79 -14z"/>
<path d="M8939 807 c-45 -30 -59 -60 -59 -130 0 -101 39 -147 126 -147 42 0
59 5 83 26 75 63 60 225 -24 260 -49 20 -87 17 -126 -9z m101 -7 c27 -27 33
-57 28 -144 -4 -82 -23 -116 -64 -116 -41 0 -59 43 -59 141 0 79 2 90 24 113
29 31 45 32 71 6z"/>
<path d="M9595 818 c-66 -36 -97 -116 -76 -195 25 -90 130 -126 192 -64 16 16
29 35 29 42 0 6 -11 0 -25 -15 -34 -37 -86 -36 -115 2 -19 24 -21 37 -18 105
3 72 6 81 31 103 30 26 44 29 65 15 12 -7 12 -12 1 -29 -12 -19 -11 -24 4 -39
21 -21 50 -8 55 25 7 44 -93 78 -143 50z"/>
<path d="M9865 820 c-46 -19 -69 -58 -73 -125 -7 -115 31 -165 125 -165 49 0
59 4 87 33 70 69 52 219 -29 253 -38 15 -79 17 -110 4z m85 -20 c27 -27 33
-57 28 -144 -4 -85 -24 -119 -67 -114 -42 5 -63 58 -59 150 3 65 7 80 27 102
29 31 45 32 71 6z"/>
<path d="M10140 815 c-49 -27 -42 -99 13 -137 81 -55 105 -96 75 -126 -35 -35
-108 9 -108 64 0 13 -4 24 -10 24 -5 0 -10 -25 -10 -56 0 -50 2 -55 15 -44 12
10 19 10 27 2 7 -7 34 -12 60 -12 39 0 54 5 73 25 47 46 30 89 -61 156 -45 33
-55 45 -52 66 7 58 79 52 101 -7 16 -43 27 -37 27 16 0 41 -2 45 -15 34 -12
-10 -21 -10 -41 -1 -33 15 -63 14 -94 -4z"/>
<path d="M10895 820 c-87 -36 -109 -197 -35 -262 42 -38 115 -40 154 -3 14 13
26 30 26 36 0 7 -10 3 -23 -9 -62 -59 -146 0 -135 94 3 26 7 29 43 30 22 1 59
2 83 3 l44 1 -7 33 c-13 66 -86 104 -150 77z m62 -8 c13 -8 33 -55 33 -78 0
-10 -14 -14 -56 -14 l-56 0 6 33 c3 17 16 40 27 50 24 19 29 20 46 9z"/>
<path d="M11723 816 c-80 -36 -96 -185 -27 -253 28 -29 38 -33 87 -33 94 0
132 50 125 165 -3 57 -8 70 -35 96 -37 37 -100 47 -150 25z m97 -21 c19 -21
24 -38 27 -102 5 -93 -15 -146 -58 -151 -43 -5 -63 29 -67 114 -5 87 1 117 28
144 26 26 42 25 70 -5z"/>
<path d="M11995 820 c-37 -4 -44 -7 -27 -12 21 -6 22 -10 22 -132 0 -105 -2
-126 -15 -126 -8 0 -15 -3 -15 -7 0 -5 27 -8 60 -8 33 0 60 1 60 3 0 2 -7 11
-16 19 -13 13 -15 34 -12 109 3 81 6 95 27 118 32 34 68 34 81 0 16 -42 13
-210 -5 -228 -8 -8 -15 -16 -15 -18 0 -2 27 -3 60 -3 33 0 60 3 60 8 0 4 -6 7
-14 7 -11 0 -15 26 -17 121 -4 114 -5 122 -29 141 -31 25 -92 19 -125 -12
l-23 -22 -4 23 c-3 22 -6 24 -53 19z"/>
<path d="M13081 804 c-30 -25 -31 -25 -31 -5 0 19 -6 21 -52 21 -50 0 -52 -1
-30 -16 21 -14 22 -23 22 -128 0 -104 -2 -115 -21 -127 -18 -13 -12 -14 55
-14 72 0 103 10 54 17 -22 3 -23 8 -26 104 -2 89 0 103 18 127 27 34 53 36 45
4 -8 -32 16 -52 44 -37 26 13 27 42 3 63 -26 23 -45 21 -81 -9z"/>
<path d="M13264 816 c-39 -17 -48 -30 -40 -62 7 -28 37 -32 57 -8 10 13 10 19
0 36 -11 17 -10 22 1 29 42 27 80 -6 76 -64 -3 -40 -4 -41 -63 -64 -69 -26
-85 -44 -85 -89 0 -59 71 -84 123 -44 l26 21 11 -21 c11 -20 43 -26 74 -14 23
9 20 23 -4 17 -19 -5 -20 0 -20 110 0 95 -3 119 -18 137 -23 28 -94 36 -138
16z m85 -242 c-17 -21 -66 -18 -79 5 -15 29 3 66 47 94 l38 24 3 -54 c2 -32
-2 -61 -9 -69z"/>
<path d="M13540 817 c-32 -16 -47 -58 -32 -91 6 -14 34 -42 62 -62 62 -44 73
-64 60 -99 -9 -23 -15 -26 -47 -23 -38 3 -43 9 -71 78 -9 21 -11 16 -11 -34
-1 -46 2 -56 12 -48 8 7 18 7 27 2 22 -14 102 -11 122 4 51 38 36 106 -34 154
-61 42 -81 67 -74 90 16 50 81 36 107 -22 l19 -41 0 55 c0 37 -3 50 -9 41 -8
-12 -14 -13 -36 -3 -33 15 -63 15 -95 -1z"/>
<path d="M5796 806 c16 -12 19 -29 22 -128 4 -133 12 -148 77 -148 29 0 47 6
60 20 10 11 21 20 26 20 4 0 5 -9 2 -20 -5 -18 0 -20 48 -20 50 1 53 2 34 16
-18 13 -20 29 -23 144 l-4 130 -51 -1 c-41 0 -47 -2 -29 -9 21 -9 22 -15 22
-114 0 -114 -12 -143 -59 -148 -39 -5 -51 31 -51 160 l0 112 -47 0 c-43 0 -45
-1 -27 -14z"/>
<path d="M7029 807 c6 -8 35 -72 64 -142 29 -71 57 -130 63 -132 5 -2 29 50
53 115 24 64 52 129 63 145 l19 27 -48 -1 c-42 0 -45 -2 -25 -11 12 -6 22 -19
22 -29 0 -18 -42 -138 -56 -161 -7 -12 -74 145 -74 173 0 10 8 20 18 22 9 3
-12 5 -47 6 -52 1 -61 -1 -52 -12z"/>
<path d="M9360 800 c17 -17 20 -33 20 -125 0 -90 -3 -107 -19 -122 -19 -17
-17 -18 45 -18 35 0 64 3 64 8 0 4 -7 7 -15 7 -13 0 -15 22 -15 135 l0 135
-50 0 -50 0 20 -20z"/>
<path d="M12627 805 c19 -14 22 -26 25 -131 3 -101 6 -117 22 -130 29 -21 89
-17 120 7 l26 20 0 -20 c0 -19 6 -21 53 -20 50 0 51 1 30 16 -22 15 -23 22
-23 144 l0 129 -52 0 c-50 0 -52 -1 -30 -16 20 -14 22 -24 22 -104 0 -99 -10
-132 -47 -149 -30 -14 -29 -14 -47 5 -13 12 -16 40 -16 140 l0 124 -52 0 c-49
0 -51 -1 -31 -15z"/>
<path d="M3 70 c0 -41 2 -58 4 -38 2 21 2 55 0 76 -2 20 -4 3 -4 -38z"/>
</g>
</svg>
